<svg width="36" height="38" viewBox="0 0 36 38" fill="none" xmlns="http://www.w3.org/2000/svg">
<path d="M9.05995 10.84C11.5011 10.84 13.4799 8.8611 13.4799 6.42C13.4799 3.9789 11.5011 2 9.05995 2C6.61885 2 4.63995 3.9789 4.63995 6.42C4.63995 8.8611 6.61885 10.84 9.05995 10.84Z" fill="#FF7F40"/>
<path d="M26.56 10.84C29.0011 10.84 30.9799 8.8611 30.9799 6.42C30.9799 3.9789 29.0011 2 26.56 2C24.1189 2 22.14 3.9789 22.14 6.42C22.14 8.8611 24.1189 10.84 26.56 10.84Z" fill="#FF7F40"/>
<path d="M0.0500031 18.52V19.91C0.0500031 26.25 3.37 31.82 8.37 34.96C11.11 36.68 14.34 37.68 17.81 37.68C21.28 37.68 24.52 36.68 27.25 34.96C32.25 31.82 35.57 26.25 35.57 19.91V17.62C35.57 17.62 35.57 17.62 35.57 17.61V16.94C35.57 15.64 34.52 14.58 33.21 14.58H29.58C28.28 14.58 27.22 15.63 27.22 16.94V18.42C27.22 18.42 27.22 18.44 27.22 18.45V19.61H27.17C27.17 19.71 27.17 19.82 27.17 19.93C27.17 25.13 22.96 29.34 17.76 29.34C12.56 29.34 8.35001 25.13 8.35001 19.93C8.35001 19.82 8.35001 19.72 8.35001 19.61V17.84C8.35001 17.79 8.35001 17.73 8.35001 17.68V16.94C8.35001 15.64 7.30001 14.58 5.99001 14.58H2.36C1.06 14.58 0 15.63 0 16.94V18.42C0 18.42 0 18.49 0 18.53L0.0500031 18.52Z" fill="#FF7F40"/>
</svg>
