<svg width="37" height="38" viewBox="0 0 37 38" fill="none" xmlns="http://www.w3.org/2000/svg">
<g clip-path="url(#clip0_58_149)">
<path d="M36.948 20.5549V18.1181C36.948 11.6539 33.4945 5.97478 28.2935 2.77328C25.4433 1.01959 22.0835 0 18.474 0C14.8645 0 11.4942 1.01959 8.65448 2.77328C3.45347 5.97478 0 11.6539 0 18.1181V34.9005C0 34.9005 0 34.9005 0 34.9107V35.5938C0 36.9192 1.09221 38 2.45488 38H6.23081C7.58308 38 8.68569 36.9294 8.68569 35.5938V20.667C8.68569 20.667 8.68569 20.6466 8.68569 20.6364V18.4341H8.7377C8.7377 18.3322 8.7377 18.22 8.7377 18.1079C8.7377 12.806 13.117 8.51355 18.526 8.51355C23.9351 8.51355 28.3143 12.806 28.3143 18.1079C28.3143 18.22 28.3143 18.322 28.3143 18.4341V33.157C28.3143 33.2079 28.3143 33.2691 28.3143 33.3201V35.5938C28.3143 36.9192 29.4065 38 30.7692 38H34.5451C35.8974 38 37 36.9294 37 35.5938V20.667C37 20.667 37 20.5957 37 20.5549H36.948Z" fill="white"/>
</g>
<defs>
<clipPath id="clip0_58_149">
<rect width="37" height="38" fill="white"/>
</clipPath>
</defs>
</svg>
