<svg width="29" height="38" viewBox="0 0 29 38" fill="none" xmlns="http://www.w3.org/2000/svg">
<g clip-path="url(#clip0_58_120)">
<path d="M0.229994 5.98V2.36C0.229994 1.05 1.27999 0 2.57999 0H20.99C22.53 0 23.96 0.42 25.26 1.25C26.58 2.08 27.58 3.19 28.26 4.58C28.99 6.07 29.27 7.6 29.1 9.18C28.9 11.01 28.13 12.51 26.81 13.68L8.83999 29.51H26.95C28.25 29.51 29.31 30.56 29.31 31.87V35.5C29.31 36.8 28.26 37.86 26.95 37.86H8.15999C6.61999 37.86 5.18999 37.45 3.85999 36.61C2.54999 35.8 1.55999 34.69 0.859994 33.28C0.149994 31.8 -0.120006 30.27 0.0499938 28.7C0.249994 26.85 1.01999 25.35 2.33999 24.2L20.31 8.34H2.57999C1.27999 8.34 0.219994 7.29 0.219994 5.98H0.229994Z" fill="white"/>
</g>
<defs>
<clipPath id="clip0_58_120">
<rect width="29" height="38" fill="white"/>
</clipPath>
</defs>
</svg>
