<svg width="30" height="38" viewBox="0 0 30 38" fill="none" xmlns="http://www.w3.org/2000/svg">
<path d="M18.2 15.02C21.39 15.02 24.11 16.15 26.36 18.4C28.81 20.85 29.92 23.74 29.72 27.09C29.54 29.93 28.28 32.61 26.23 34.6C24 36.77 21.32 37.85 18.2 37.85H4.05997C2.75997 37.85 1.69997 36.8 1.69997 35.49V31.91C1.69997 30.61 2.74997 29.55 4.05997 29.55H18.2C19.1 29.55 19.86 29.23 20.49 28.58C21.13 27.95 21.46 27.19 21.46 26.29C21.46 25.22 21.14 24.38 20.49 23.75C19.86 23.12 19.1 22.81 18.2 22.81H12.43C9.23996 22.81 6.51997 21.68 4.26997 19.43C1.81997 16.98 0.709972 14.09 0.909972 10.75C1.08997 7.91 2.34997 5.23 4.38997 3.24C6.62997 1.09 9.30996 0 12.43 0H25.5C26.8 0 27.86 1.05 27.86 2.36V5.94C27.86 7.24 26.81 8.3 25.5 8.3H12.43C11.53 8.3 10.77 8.62 10.14 9.27C9.49997 9.9 9.16997 10.66 9.16997 11.56C9.16997 12.63 9.48997 13.48 10.14 14.1C10.77 14.73 11.53 15.04 12.43 15.04H18.2V15.02Z" fill="#FF7F40"/>
</svg>
