<svg width="187" height="44" viewBox="0 0 187 44" fill="none" xmlns="http://www.w3.org/2000/svg">
<rect width="187" height="44" fill="white"/>
<path d="M53.5617 31.9764C53.5827 31.9764 55.4032 32.04 57.2395 31.2274C58.9577 30.4651 61.1534 28.7871 61.8852 25.1187H59.2541C58.7767 26.9105 57.7589 28.1651 56.2269 28.848C54.9678 29.4091 53.5643 29.3879 53.5538 29.3879C50.364 29.3879 49.2491 27.911 48.8818 27.4266C47.948 26.1932 47.4548 24.359 47.4496 22.1251C47.4522 19.8886 47.948 18.0544 48.8818 16.821C49.2491 16.3366 50.364 14.8597 53.5565 14.8597C53.567 14.8597 54.9704 14.8386 56.2295 15.3997C57.7615 16.0826 58.7793 17.3371 59.2567 19.129H61.8879C61.1533 15.4606 58.9577 13.7825 57.2421 13.0202C55.6629 12.3188 54.0942 12.2686 53.6745 12.2686C53.6063 12.2686 53.5696 12.2686 53.5669 12.2686C50.6053 12.2686 48.3467 13.269 46.8541 15.2462C45.5766 16.9348 44.8998 19.3116 44.8945 22.1225C44.8972 24.9334 45.5766 27.3102 46.8541 28.9988C48.3493 30.9733 50.6053 31.9738 53.5643 31.9738L53.5617 31.9764Z" fill="#002555"/>
<path d="M78.1762 28.7554H66.5867V22.988H76.6836V20.561H66.5867V15.2992H78.1762V12.8721H64.0605V31.1825H78.1762V28.7554Z" fill="#002555"/>
<path d="M44.1923 28.7466H39.397V15.2983H44.1923V12.8633H32.0703V15.2983H36.8682V28.7466H32.0703V31.1816H44.1923V28.7466Z" fill="#002555"/>
<path d="M17.0249 16.8284L26.744 31.1819H29.7922V12.8662H27.2634V27.1429L17.6046 12.8662H14.4961V31.1819H17.0249V16.8284Z" fill="#002555"/>
<path d="M8.17188 8.24512V35.7584H178.832V8.24512H8.17188ZM176.951 33.8606H10.0501V10.1402H176.951V33.8606Z" fill="#002555"/>
<path d="M97.2394 11.9717H94.9336V30.8141H97.2394V11.9717Z" fill="#002555"/>
<path d="M82.9559 26.616C85.0046 25.4594 86.8226 23.252 87.4311 21.1955C88.1132 23.1488 90.2616 25.2953 91.9195 26.2005L91.9588 26.2217L93.2941 24.3478L93.2442 24.3213C90.2144 22.7147 88.6116 20.0044 88.6116 16.4842V15.7007H92.4809V13.7051H82.2948V15.7007H86.1641V16.5265C86.1641 20.2691 84.5692 23.1302 81.5525 24.8004L81.5 24.8295L82.9192 26.6399L82.9559 26.6187V26.616Z" fill="#002555"/>
<path d="M101.623 25.7937C105.6 25.7937 109.372 25.4628 111.602 24.9123L111.644 24.9017L111.389 22.9061L111.337 22.9166C109.304 23.3692 106.096 23.663 103.155 23.6657V13.5762H100.828V25.7884H100.878C101.127 25.791 101.376 25.7937 101.626 25.7937H101.623Z" fill="#002555"/>
<path d="M115.528 11.9717H113.201V30.8141H115.528V11.9717Z" fill="#002555"/>
<path d="M134.362 11.9717H132.074V30.8353H134.362V11.9717Z" fill="#002555"/>
<path d="M119.919 25.989C122.852 25.989 125.155 25.7931 126.931 25.3935L126.975 25.3829L126.742 23.4269L126.689 23.4402C125.231 23.779 123.038 23.9748 120.958 23.9616V15.8677H125.879V13.8721H118.631V25.9811H118.678C119.106 25.989 119.518 25.9917 119.921 25.9917L119.919 25.989Z" fill="#002555"/>
<path d="M124.641 20.4098H128.248V30.0017H130.472V12.2842H128.248V18.4353H124.641V20.4098Z" fill="#002555"/>
<path d="M141.946 26.0393C143.447 26.0393 144.717 25.4253 145.614 24.2607C146.492 23.12 146.959 21.5345 146.959 19.6712C146.959 15.7646 144.992 13.2422 141.949 13.2422C138.906 13.2422 136.957 15.8175 136.957 19.65C136.957 23.4826 138.964 26.0367 141.949 26.0367L141.946 26.0393ZM141.946 15.3226C143.589 15.3226 144.693 17.0615 144.693 19.65C144.693 22.2386 143.589 23.9775 141.946 23.9775C140.304 23.9775 139.302 22.2386 139.302 19.65C139.302 17.0615 140.365 15.3226 141.946 15.3226Z" fill="#002555"/>
<path d="M152.225 11.9717H149.877V30.8141H152.225V11.9717Z" fill="#002555"/>
<path d="M157.392 26.209C160.422 26.209 163.843 26.0396 165.918 25.5605L165.96 25.5499L165.732 23.5887L165.726 23.5331L165.671 23.5463C163.192 24.1366 159.677 24.1789 157.773 24.1498V20.5581H163.827V18.581H157.773V15.3863H164.255V13.4092H155.467V26.1852H155.514C156.109 26.201 156.742 26.209 157.392 26.209Z" fill="#002555"/>
<path d="M169.6 20.7854H172.454V18.7474H169.6V11.9717H167.252V30.8353H169.6V20.7854Z" fill="#002555"/>
</svg>
